<svg width="512" height="512" viewBox="0 0 512 512" fill="none" xmlns="http://www.w3.org/2000/svg">
<path fill-rule="evenodd" clip-rule="evenodd" d="M124.541 256.001C124.541 183.397 183.397 124.541 256.001 124.541C328.603 124.541 387.459 183.397 387.459 256.001C387.459 328.603 328.603 387.459 256.001 387.459C183.397 387.459 124.541 328.603 124.541 256.001ZM256 341.333C208.871 341.333 170.667 303.129 170.667 256.001C170.667 208.871 208.871 170.667 256 170.667C303.128 170.667 341.333 208.871 341.333 256.001C341.333 303.129 303.128 341.333 256 341.333Z" fill="url(#paint0_linear_1_921)"/>
<path fill-rule="evenodd" clip-rule="evenodd" d="M124.541 256.001C124.541 183.397 183.397 124.541 256.001 124.541C328.603 124.541 387.459 183.397 387.459 256.001C387.459 328.603 328.603 387.459 256.001 387.459C183.397 387.459 124.541 328.603 124.541 256.001ZM256 341.333C208.871 341.333 170.667 303.129 170.667 256.001C170.667 208.871 208.871 170.667 256 170.667C303.128 170.667 341.333 208.871 341.333 256.001C341.333 303.129 303.128 341.333 256 341.333Z" fill="url(#paint1_radial_1_921)"/>
<path d="M392.653 150.066C409.62 150.066 423.374 136.313 423.374 119.347C423.374 102.38 409.62 88.6263 392.653 88.6263C375.688 88.6263 361.934 102.38 361.934 119.347C361.934 136.313 375.688 150.066 392.653 150.066Z" fill="url(#paint2_linear_1_921)"/>
<path d="M392.653 150.066C409.62 150.066 423.374 136.313 423.374 119.347C423.374 102.38 409.62 88.6263 392.653 88.6263C375.688 88.6263 361.934 102.38 361.934 119.347C361.934 136.313 375.688 150.066 392.653 150.066Z" fill="url(#paint3_radial_1_921)"/>
<path fill-rule="evenodd" clip-rule="evenodd" d="M256.001 0C186.475 0 177.757 0.294696 150.452 1.54055C123.203 2.78335 104.594 7.11132 88.3103 13.4402C71.476 19.9814 57.1995 28.7349 42.9667 42.9667C28.7349 57.1995 19.9814 71.476 13.4402 88.3103C7.11132 104.594 2.78335 123.203 1.54055 150.452C0.294696 177.757 0 186.475 0 256.001C0 325.525 0.294696 334.243 1.54055 361.548C2.78335 388.797 7.11132 407.406 13.4402 423.69C19.9814 440.524 28.7349 454.8 42.9667 469.033C57.1995 483.265 71.476 492.019 88.3103 498.561C104.594 504.889 123.203 509.217 150.452 510.459C177.757 511.705 186.475 512 256.001 512C325.525 512 334.243 511.705 361.548 510.459C388.797 509.217 407.406 504.889 423.69 498.561C440.524 492.019 454.8 483.265 469.033 469.033C483.265 454.8 492.019 440.524 498.561 423.69C504.889 407.406 509.217 388.797 510.459 361.548C511.705 334.243 512 325.525 512 256.001C512 186.475 511.705 177.757 510.459 150.452C509.217 123.203 504.889 104.594 498.561 88.3103C492.019 71.476 483.265 57.1995 469.033 42.9667C454.8 28.7349 440.524 19.9814 423.69 13.4402C407.406 7.11132 388.797 2.78335 361.548 1.54055C334.243 0.294696 325.525 0 256.001 0ZM256.001 46.126C324.355 46.126 332.452 46.3872 359.446 47.6188C384.406 48.757 397.961 52.9274 406.982 56.4333C418.931 61.0773 427.459 66.6247 436.417 75.5835C445.375 84.5412 450.923 93.0691 455.567 105.019C459.073 114.039 463.243 127.594 464.381 152.554C465.613 179.548 465.874 187.645 465.874 256.001C465.874 324.355 465.613 332.452 464.381 359.446C463.243 384.406 459.073 397.961 455.567 406.981C450.923 418.931 445.375 427.459 436.417 436.417C427.459 445.375 418.931 450.923 406.982 455.567C397.961 459.073 384.406 463.243 359.446 464.381C332.456 465.613 324.36 465.874 256.001 465.874C187.64 465.874 179.545 465.613 152.554 464.381C127.594 463.243 114.039 459.073 105.019 455.567C93.0692 450.923 84.5413 445.375 75.5835 436.417C66.6258 427.459 61.0774 418.931 56.4333 406.981C52.9275 397.961 48.757 384.406 47.6189 359.446C46.3873 332.452 46.1261 324.355 46.1261 256.001C46.1261 187.645 46.3873 179.548 47.6189 152.554C48.757 127.594 52.9275 114.039 56.4333 105.019C61.0774 93.0691 66.6248 84.5412 75.5835 75.5835C84.5413 66.6247 93.0692 61.0773 105.019 56.4333C114.039 52.9274 127.594 48.757 152.554 47.6188C179.548 46.3872 187.645 46.126 256.001 46.126Z" fill="url(#paint4_linear_1_921)"/>
<path fill-rule="evenodd" clip-rule="evenodd" d="M256.001 0C186.475 0 177.757 0.294696 150.452 1.54055C123.203 2.78335 104.594 7.11132 88.3103 13.4402C71.476 19.9814 57.1995 28.7349 42.9667 42.9667C28.7349 57.1995 19.9814 71.476 13.4402 88.3103C7.11132 104.594 2.78335 123.203 1.54055 150.452C0.294696 177.757 0 186.475 0 256.001C0 325.525 0.294696 334.243 1.54055 361.548C2.78335 388.797 7.11132 407.406 13.4402 423.69C19.9814 440.524 28.7349 454.8 42.9667 469.033C57.1995 483.265 71.476 492.019 88.3103 498.561C104.594 504.889 123.203 509.217 150.452 510.459C177.757 511.705 186.475 512 256.001 512C325.525 512 334.243 511.705 361.548 510.459C388.797 509.217 407.406 504.889 423.69 498.561C440.524 492.019 454.8 483.265 469.033 469.033C483.265 454.8 492.019 440.524 498.561 423.69C504.889 407.406 509.217 388.797 510.459 361.548C511.705 334.243 512 325.525 512 256.001C512 186.475 511.705 177.757 510.459 150.452C509.217 123.203 504.889 104.594 498.561 88.3103C492.019 71.476 483.265 57.1995 469.033 42.9667C454.8 28.7349 440.524 19.9814 423.69 13.4402C407.406 7.11132 388.797 2.78335 361.548 1.54055C334.243 0.294696 325.525 0 256.001 0ZM256.001 46.126C324.355 46.126 332.452 46.3872 359.446 47.6188C384.406 48.757 397.961 52.9274 406.982 56.4333C418.931 61.0773 427.459 66.6247 436.417 75.5835C445.375 84.5412 450.923 93.0691 455.567 105.019C459.073 114.039 463.243 127.594 464.381 152.554C465.613 179.548 465.874 187.645 465.874 256.001C465.874 324.355 465.613 332.452 464.381 359.446C463.243 384.406 459.073 397.961 455.567 406.981C450.923 418.931 445.375 427.459 436.417 436.417C427.459 445.375 418.931 450.923 406.982 455.567C397.961 459.073 384.406 463.243 359.446 464.381C332.456 465.613 324.36 465.874 256.001 465.874C187.64 465.874 179.545 465.613 152.554 464.381C127.594 463.243 114.039 459.073 105.019 455.567C93.0692 450.923 84.5413 445.375 75.5835 436.417C66.6258 427.459 61.0774 418.931 56.4333 406.981C52.9275 397.961 48.757 384.406 47.6189 359.446C46.3873 332.452 46.1261 324.355 46.1261 256.001C46.1261 187.645 46.3873 179.548 47.6189 152.554C48.757 127.594 52.9275 114.039 56.4333 105.019C61.0774 93.0691 66.6248 84.5412 75.5835 75.5835C84.5413 66.6247 93.0692 61.0773 105.019 56.4333C114.039 52.9274 127.594 48.757 152.554 47.6188C179.548 46.3872 187.645 46.126 256.001 46.126Z" fill="url(#paint5_radial_1_921)"/>
<defs>
<linearGradient id="paint0_linear_1_921" x1="29.8736" y1="26.9173" x2="191.303" y2="651.345" gradientUnits="userSpaceOnUse">
<stop stop-color="#4E60D3"/>
<stop offset="0.142763" stop-color="#913BAF"/>
<stop offset="0.761458" stop-color="#D52D88"/>
<stop offset="1" stop-color="#F26D4F"/>
</linearGradient>
<radialGradient id="paint1_radial_1_921" cx="0" cy="0" r="1" gradientUnits="userSpaceOnUse" gradientTransform="translate(155.005 512) rotate(32.1601) scale(478.18 344.131)">
<stop stop-color="#FED276"/>
<stop offset="0.17024" stop-color="#FDBD61" stop-opacity="0.975006"/>
<stop offset="0.454081" stop-color="#F6804D"/>
<stop offset="1" stop-color="#E83D5C" stop-opacity="0.01"/>
</radialGradient>
<linearGradient id="paint2_linear_1_921" x1="29.8736" y1="26.9173" x2="191.303" y2="651.345" gradientUnits="userSpaceOnUse">
<stop stop-color="#4E60D3"/>
<stop offset="0.142763" stop-color="#913BAF"/>
<stop offset="0.761458" stop-color="#D52D88"/>
<stop offset="1" stop-color="#F26D4F"/>
</linearGradient>
<radialGradient id="paint3_radial_1_921" cx="0" cy="0" r="1" gradientUnits="userSpaceOnUse" gradientTransform="translate(155.005 512) rotate(32.1601) scale(478.18 344.131)">
<stop stop-color="#FED276"/>
<stop offset="0.17024" stop-color="#FDBD61" stop-opacity="0.975006"/>
<stop offset="0.454081" stop-color="#F6804D"/>
<stop offset="1" stop-color="#E83D5C" stop-opacity="0.01"/>
</radialGradient>
<linearGradient id="paint4_linear_1_921" x1="29.8736" y1="26.9173" x2="191.303" y2="651.345" gradientUnits="userSpaceOnUse">
<stop stop-color="#4E60D3"/>
<stop offset="0.142763" stop-color="#913BAF"/>
<stop offset="0.761458" stop-color="#D52D88"/>
<stop offset="1" stop-color="#F26D4F"/>
</linearGradient>
<radialGradient id="paint5_radial_1_921" cx="0" cy="0" r="1" gradientUnits="userSpaceOnUse" gradientTransform="translate(155.005 512) rotate(32.1601) scale(478.18 344.131)">
<stop stop-color="#FED276"/>
<stop offset="0.17024" stop-color="#FDBD61" stop-opacity="0.975006"/>
<stop offset="0.454081" stop-color="#F6804D"/>
<stop offset="1" stop-color="#E83D5C" stop-opacity="0.01"/>
</radialGradient>
</defs>
</svg>
